<svg width="210" height="55" viewBox="0 0 210 55" fill="none" xmlns="http://www.w3.org/2000/svg">
<path d="M96.1007 52V25.63H87.1907V22.48H108.791V25.63H99.8807V52H96.1007ZM114.107 52V22.48H117.842V52H114.107ZM136.818 52.54C134.358 52.54 132.168 51.91 130.248 50.65C128.358 49.39 126.873 47.605 125.793 45.295C124.743 42.985 124.218 40.255 124.218 37.105C124.218 33.955 124.743 31.255 125.793 29.005C126.873 26.725 128.358 24.985 130.248 23.785C132.168 22.555 134.358 21.94 136.818 21.94C139.308 21.94 141.498 22.555 143.388 23.785C145.278 24.985 146.763 26.725 147.843 29.005C148.923 31.255 149.463 33.955 149.463 37.105C149.463 40.255 148.923 42.985 147.843 45.295C146.763 47.605 145.278 49.39 143.388 50.65C141.498 51.91 139.308 52.54 136.818 52.54ZM136.818 49.255C138.588 49.255 140.118 48.76 141.408 47.77C142.728 46.75 143.748 45.34 144.468 43.54C145.188 41.71 145.548 39.565 145.548 37.105C145.548 33.445 144.753 30.55 143.163 28.42C141.573 26.29 139.458 25.225 136.818 25.225C134.178 25.225 132.063 26.29 130.473 28.42C128.883 30.55 128.088 33.445 128.088 37.105C128.088 39.565 128.448 41.71 129.168 43.54C129.888 45.34 130.908 46.75 132.228 47.77C133.548 48.76 135.078 49.255 136.818 49.255ZM155.811 52V22.48H159.681L170.346 41.02L173.541 47.14H173.721C173.631 45.64 173.526 44.095 173.406 42.505C173.316 40.885 173.271 39.295 173.271 37.735V22.48H176.826V52H172.956L162.246 33.415L159.051 27.34H158.871C158.991 28.81 159.096 30.325 159.186 31.885C159.306 33.445 159.366 35.005 159.366 36.565V52H155.811Z" fill="white"/>
<path d="M96.1007 52H95.6282V52.4725H96.1007V52ZM96.1007 25.63H96.5732V25.1575H96.1007V25.63ZM87.1907 25.63H86.7182V26.1025H87.1907V25.63ZM87.1907 22.48V22.0075H86.7182V22.48H87.1907ZM108.791 22.48H109.263V22.0075H108.791V22.48ZM108.791 25.63V26.1025H109.263V25.63H108.791ZM99.8807 25.63V25.1575H99.4082V25.63H99.8807ZM99.8807 52V52.4725H100.353V52H99.8807ZM96.5732 52V25.63H95.6282V52H96.5732ZM96.1007 25.1575H87.1907V26.1025H96.1007V25.1575ZM87.6632 25.63V22.48H86.7182V25.63H87.6632ZM87.1907 22.9525H108.791V22.0075H87.1907V22.9525ZM108.318 22.48V25.63H109.263V22.48H108.318ZM108.791 25.1575H99.8807V26.1025H108.791V25.1575ZM99.4082 25.63V52H100.353V25.63H99.4082ZM99.8807 51.5275H96.1007V52.4725H99.8807V51.5275ZM114.107 52H113.634V52.4725H114.107V52ZM114.107 22.48V22.0075H113.634V22.48H114.107ZM117.842 22.48H118.314V22.0075H117.842V22.48ZM117.842 52V52.4725H118.314V52H117.842ZM114.579 52V22.48H113.634V52H114.579ZM114.107 22.9525H117.842V22.0075H114.107V22.9525ZM117.369 22.48V52H118.314V22.48H117.369ZM117.842 51.5275H114.107V52.4725H117.842V51.5275ZM130.248 50.65L129.986 51.0432L129.989 51.045L130.248 50.65ZM125.793 45.295L125.363 45.4905L125.365 45.4951L125.793 45.295ZM125.793 29.005L125.366 28.8027L125.365 28.8052L125.793 29.005ZM130.248 23.785L130.501 24.1839L130.503 24.1829L130.248 23.785ZM143.388 23.785L143.13 24.181L143.135 24.1839L143.388 23.785ZM147.843 29.005L147.416 29.2073L147.417 29.2095L147.843 29.005ZM147.843 45.295L148.271 45.4951L147.843 45.295ZM143.388 50.65L143.65 51.0431L143.388 50.65ZM141.408 47.77L141.696 48.1448L141.697 48.1439L141.408 47.77ZM144.468 43.54L144.907 43.7155L144.908 43.713L144.468 43.54ZM143.163 28.42L143.542 28.1374L143.163 28.42ZM130.473 28.42L130.094 28.1374L130.473 28.42ZM129.168 43.54L128.728 43.713L128.729 43.7155L129.168 43.54ZM132.228 47.77L131.939 48.1439L131.944 48.148L132.228 47.77ZM136.818 52.0675C134.443 52.0675 132.345 51.4608 130.507 50.255L129.989 51.045C131.991 52.3592 134.273 53.0125 136.818 53.0125V52.0675ZM130.51 50.2569C128.7 49.0505 127.269 47.3364 126.221 45.0949L125.365 45.4951C126.477 47.8736 128.015 49.7295 129.986 51.0431L130.51 50.2569ZM126.223 45.0995C125.207 42.8638 124.69 40.2034 124.69 37.105H123.745C123.745 40.3066 124.279 43.1062 125.363 45.4905L126.223 45.0995ZM124.69 37.105C124.69 34.0061 125.207 31.3778 126.221 29.2048L125.365 28.8052C124.279 31.1322 123.745 33.9039 123.745 37.105H124.69ZM126.22 29.2073C127.267 26.9974 128.696 25.3302 130.501 24.1839L129.995 23.3861C128.02 24.6398 126.479 26.4526 125.366 28.8027L126.22 29.2073ZM130.503 24.1829C132.341 23.0055 134.441 22.4125 136.818 22.4125V21.4675C134.275 21.4675 131.995 22.1045 129.993 23.3871L130.503 24.1829ZM136.818 22.4125C139.226 22.4125 141.325 23.0061 143.13 24.181L143.646 23.389C141.671 22.1039 139.39 21.4675 136.818 21.4675V22.4125ZM143.135 24.1839C144.94 25.3302 146.369 26.9974 147.416 29.2073L148.27 28.8027C147.157 26.4526 145.616 24.6398 143.641 23.3861L143.135 24.1839ZM147.417 29.2095C148.459 31.3812 148.99 34.0078 148.99 37.105H149.935C149.935 33.9022 149.386 31.1288 148.269 28.8005L147.417 29.2095ZM148.99 37.105C148.99 40.2017 148.46 42.8605 147.415 45.0949L148.271 45.4951C149.386 43.1095 149.935 40.3083 149.935 37.105H148.99ZM147.415 45.0949C146.367 47.3364 144.935 49.0505 143.126 50.2569L143.65 51.0431C145.62 49.7295 147.159 47.8736 148.271 45.4951L147.415 45.0949ZM143.126 50.2569C141.321 51.4602 139.224 52.0675 136.818 52.0675V53.0125C139.392 53.0125 141.675 52.3598 143.65 51.0431L143.126 50.2569ZM136.818 49.7275C138.682 49.7275 140.316 49.2039 141.696 48.1448L141.12 47.3952C139.92 48.3161 138.494 48.7825 136.818 48.7825V49.7275ZM141.697 48.1439C143.094 47.0644 144.16 45.5809 144.907 43.7155L144.029 43.3645C143.335 45.0991 142.362 46.4356 141.119 47.3961L141.697 48.1439ZM144.908 43.713C145.654 41.816 146.02 39.6099 146.02 37.105H145.075C145.075 39.5201 144.722 41.604 144.028 43.367L144.908 43.713ZM146.02 37.105C146.02 33.3808 145.212 30.3747 143.542 28.1374L142.784 28.7026C144.294 30.7253 145.075 33.5092 145.075 37.105H146.02ZM143.542 28.1374C141.863 25.8888 139.608 24.7525 136.818 24.7525V25.6975C139.308 25.6975 141.283 26.6912 142.784 28.7026L143.542 28.1374ZM136.818 24.7525C134.028 24.7525 131.773 25.8888 130.094 28.1374L130.852 28.7026C132.353 26.6912 134.328 25.6975 136.818 25.6975V24.7525ZM130.094 28.1374C128.424 30.3747 127.615 33.3808 127.615 37.105H128.56C128.56 33.5092 129.342 30.7253 130.852 28.7026L130.094 28.1374ZM127.615 37.105C127.615 39.6099 127.982 41.816 128.728 43.713L129.608 43.367C128.914 41.604 128.56 39.5201 128.56 37.105H127.615ZM128.729 43.7155C129.475 45.5809 130.542 47.0644 131.939 48.1439L132.517 47.3961C131.274 46.4356 130.3 45.0991 129.607 43.3645L128.729 43.7155ZM131.944 48.148C133.351 49.2028 134.982 49.7275 136.818 49.7275V48.7825C135.174 48.7825 133.745 48.3172 132.511 47.392L131.944 48.148ZM155.811 52H155.338V52.4725H155.811V52ZM155.811 22.48V22.0075H155.338V22.48H155.811ZM159.681 22.48L160.09 22.2444L159.954 22.0075H159.681V22.48ZM170.346 41.02L170.765 40.8013L170.76 40.7928L170.755 40.7844L170.346 41.02ZM173.541 47.14L173.122 47.3587L173.254 47.6125H173.541V47.14ZM173.721 47.14V47.6125H174.222L174.192 47.1117L173.721 47.14ZM173.406 42.505L172.934 42.5312L172.935 42.5406L173.406 42.505ZM173.271 22.48V22.0075H172.798V22.48H173.271ZM176.826 22.48H177.298V22.0075H176.826V22.48ZM176.826 52V52.4725H177.298V52H176.826ZM172.956 52L172.546 52.2359L172.683 52.4725H172.956V52ZM162.246 33.415L161.828 33.6349L161.832 33.643L161.836 33.6509L162.246 33.415ZM159.051 27.34L159.469 27.1201L159.336 26.8675H159.051V27.34ZM158.871 27.34V26.8675H158.358L158.4 27.3784L158.871 27.34ZM159.186 31.885L158.714 31.9122L158.715 31.9212L159.186 31.885ZM159.366 52V52.4725H159.838V52H159.366ZM156.283 52V22.48H155.338V52H156.283ZM155.811 22.9525H159.681V22.0075H155.811V22.9525ZM159.271 22.7156L169.936 41.2556L170.755 40.7844L160.09 22.2444L159.271 22.7156ZM169.927 41.2387L173.122 47.3587L173.96 46.9213L170.765 40.8013L169.927 41.2387ZM173.541 47.6125H173.721V46.6675H173.541V47.6125ZM174.192 47.1117C174.102 45.6091 173.997 44.0617 173.877 42.4694L172.935 42.5406C173.054 44.1283 173.159 45.6709 173.249 47.1683L174.192 47.1117ZM173.878 42.4788C173.788 40.8672 173.743 39.2859 173.743 37.735H172.798C172.798 39.3041 172.844 40.9028 172.934 42.5312L173.878 42.4788ZM173.743 37.735V22.48H172.798V37.735H173.743ZM173.271 22.9525H176.826V22.0075H173.271V22.9525ZM176.353 22.48V52H177.298V22.48H176.353ZM176.826 51.5275H172.956V52.4725H176.826V51.5275ZM173.365 51.7641L162.655 33.1791L161.836 33.6509L172.546 52.2359L173.365 51.7641ZM162.664 33.1951L159.469 27.1201L158.633 27.5599L161.828 33.6349L162.664 33.1951ZM159.051 26.8675H158.871V27.8125H159.051V26.8675ZM158.4 27.3784C158.519 28.8445 158.624 30.3557 158.714 31.9122L159.657 31.8578C159.567 30.2943 159.462 28.7755 159.342 27.3016L158.4 27.3784ZM158.715 31.9212C158.834 33.4692 158.893 35.0171 158.893 36.565H159.838C159.838 34.9929 159.778 33.4208 159.657 31.8488L158.715 31.9212ZM158.893 36.565V52H159.838V36.565H158.893ZM159.366 51.5275H155.811V52.4725H159.366V51.5275Z" fill="white"/>
<path d="M68.2651 26.7377L58.8916 44.4511H68.3639V49.3652H50.7494L68.4592 15.9137L84.6592 49.376L79.2508 49.4317L68.2651 26.7377ZM25.9146 15.9802L31.465 15.9137L34.0461 20.8943L43.4195 38.6077L54.4071 15.9137L59.8137 15.9712L43.6137 49.4317L25.9146 15.9802ZM18.441 26.7377L9.06572 44.4511H18.5452V49.3652H0.930664L18.6351 15.9137L34.8351 49.376L29.4267 49.4317L18.441 26.7377Z" fill="#00FFB2"/>
</svg>
