<svg width="53" height="60" viewBox="0 0 53 60" fill="none" xmlns="http://www.w3.org/2000/svg">
<mask id="path-1-inside-1_96_327" fill="white">
<path d="M52.1439 51.2132C47.9483 55.4088 42.6028 58.266 36.7834 59.4236C30.9639 60.5811 24.9319 59.987 19.4502 57.7164C13.9684 55.4458 9.28302 51.6006 5.98658 46.6671C2.69013 41.7336 0.930664 35.9334 0.930664 30C0.930664 24.0666 2.69013 18.2664 5.98657 13.3329C9.28302 8.39942 13.9684 4.55424 19.4502 2.28362C24.9319 0.0129857 30.9639 -0.581115 36.7834 0.576441C42.6028 1.734 47.9483 4.59122 52.1439 8.78679L47.9007 13.03C44.5443 9.67362 40.2681 7.38792 35.6127 6.4619C30.9573 5.53589 26.1318 6.01115 21.7466 7.8276C17.3613 9.64404 13.6131 12.7201 10.976 16.6667C8.33896 20.6134 6.93143 25.2534 6.93143 30C6.93143 34.7466 8.33896 39.3866 10.976 43.3333C13.6131 47.2799 17.3613 50.356 21.7466 52.1724C26.1318 53.9888 30.9573 54.4641 35.6127 53.5381C40.2681 52.6121 44.5443 50.3264 47.9007 46.97L52.1439 51.2132Z"/>
</mask>
<path d="M52.1439 51.2132C47.9483 55.4088 42.6028 58.266 36.7834 59.4236C30.9639 60.5811 24.9319 59.987 19.4502 57.7164C13.9684 55.4458 9.28302 51.6006 5.98658 46.6671C2.69013 41.7336 0.930664 35.9334 0.930664 30C0.930664 24.0666 2.69013 18.2664 5.98657 13.3329C9.28302 8.39942 13.9684 4.55424 19.4502 2.28362C24.9319 0.0129857 30.9639 -0.581115 36.7834 0.576441C42.6028 1.734 47.9483 4.59122 52.1439 8.78679L47.9007 13.03C44.5443 9.67362 40.2681 7.38792 35.6127 6.4619C30.9573 5.53589 26.1318 6.01115 21.7466 7.8276C17.3613 9.64404 13.6131 12.7201 10.976 16.6667C8.33896 20.6134 6.93143 25.2534 6.93143 30C6.93143 34.7466 8.33896 39.3866 10.976 43.3333C13.6131 47.2799 17.3613 50.356 21.7466 52.1724C26.1318 53.9888 30.9573 54.4641 35.6127 53.5381C40.2681 52.6121 44.5443 50.3264 47.9007 46.97L52.1439 51.2132Z" stroke="url(#paint0_linear_96_327)" stroke-width="16" mask="url(#path-1-inside-1_96_327)"/>
<defs>
<linearGradient id="paint0_linear_96_327" x1="30.9307" y1="0" x2="30.9307" y2="60" gradientUnits="userSpaceOnUse">
<stop stop-color="#0081D0"/>
<stop offset="1" stop-color="#00FFB2"/>
</linearGradient>
</defs>
</svg>
